<svg width="276" height="276" viewBox="0 0 276 276" fill="none" xmlns="http://www.w3.org/2000/svg">
<g clip-path="url(#clip0_7318_303269)">
<path d="M138 276C214.215 276 276 214.215 276 138C276 61.7847 214.215 0 138 0C61.7847 0 0 61.7847 0 138C0 214.215 61.7847 276 138 276Z" fill="#D92D20"/>
<path d="M208.551 117.33H67.4414C64.68 117.33 62.4414 119.569 62.4414 122.33V153.66C62.4414 156.422 64.68 158.66 67.4414 158.66H208.551C211.313 158.66 213.551 156.422 213.551 153.66V122.33C213.551 119.569 211.313 117.33 208.551 117.33Z" fill="white"/>
</g>
<defs>
<clipPath id="clip0_7318_303269">
<rect width="276" height="276" fill="white"/>
</clipPath>
</defs>
</svg>
